<?xml version="1.0" encoding="UTF-8"?>
<svg xmlns="http://www.w3.org/2000/svg" width="1200" height="1400" viewBox="0 0 1200 1400">
<defs>
<marker id="arrow" markerWidth="12" markerHeight="12" refX="9" refY="6" orient="auto"><path d="M0,0 L0,12 L10,6 z" fill="#7dd3fc"/></marker>
<filter id="softShadow" x="-20%" y="-20%" width="140%" height="140%"><feDropShadow dx="0" dy="4" stdDeviation="6" flood-color="#020617" flood-opacity="0.55"/></filter>
</defs>
<rect x="0" y="0" width="1200" height="1400" fill="#0b1020"/>
<text x="600" y="58" fill="#e5f3ff" font-family="ui-monospace, SFMono-Regular, Menlo, monospace" font-size="36" text-anchor="middle">Senseye Node Pipeline</text>
<text x="600" y="88" fill="#9fb7d5" font-family="ui-monospace, SFMono-Regular, Menlo, monospace" font-size="18" text-anchor="middle">scan → filter → infer → share → fuse → render</text>
<g filter="url(#softShadow)">
<rect x="320" y="110" width="560" height="86" rx="14" fill="#132244" stroke="#7dd3fc" stroke-width="2"/>
<text x="600" y="146" fill="#e5f3ff" font-family="ui-monospace, SFMono-Regular, Menlo, monospace" font-size="24" text-anchor="middle">Signals</text>
<text x="600" y="174" fill="#9fb7d5" font-family="ui-monospace, SFMono-Regular, Menlo, monospace" font-size="18" text-anchor="middle">WiFi / BLE / Acoustic</text>
<rect x="320" y="230" width="560" height="86" rx="14" fill="#10192e" stroke="#7dd3fc" stroke-width="2"/>
<text x="600" y="266" fill="#e5f3ff" font-family="ui-monospace, SFMono-Regular, Menlo, monospace" font-size="24" text-anchor="middle">Scan</text>
<rect x="320" y="350" width="560" height="86" rx="14" fill="#10192e" stroke="#7dd3fc" stroke-width="2"/>
<text x="600" y="386" fill="#e5f3ff" font-family="ui-monospace, SFMono-Regular, Menlo, monospace" font-size="24" text-anchor="middle">Adaptive Kalman</text>
<text x="600" y="414" fill="#9fb7d5" font-family="ui-monospace, SFMono-Regular, Menlo, monospace" font-size="18" text-anchor="middle">Per link</text>
<rect x="320" y="470" width="560" height="86" rx="14" fill="#10192e" stroke="#7dd3fc" stroke-width="2"/>
<text x="600" y="506" fill="#e5f3ff" font-family="ui-monospace, SFMono-Regular, Menlo, monospace" font-size="24" text-anchor="middle">Infer</text>
<text x="600" y="534" fill="#9fb7d5" font-family="ui-monospace, SFMono-Regular, Menlo, monospace" font-size="18" text-anchor="middle">Links / Devices / Zones + Confidence</text>
<rect x="320" y="590" width="560" height="86" rx="14" fill="#132244" stroke="#7dd3fc" stroke-width="2"/>
<text x="600" y="626" fill="#e5f3ff" font-family="ui-monospace, SFMono-Regular, Menlo, monospace" font-size="24" text-anchor="middle">Gossip Mesh</text>
<text x="600" y="654" fill="#9fb7d5" font-family="ui-monospace, SFMono-Regular, Menlo, monospace" font-size="18" text-anchor="middle">mDNS + TCP, sequence dedup, hop TTL</text>
<rect x="320" y="710" width="560" height="86" rx="14" fill="#10192e" stroke="#7dd3fc" stroke-width="2"/>
<text x="600" y="746" fill="#e5f3ff" font-family="ui-monospace, SFMono-Regular, Menlo, monospace" font-size="24" text-anchor="middle">Consensus Fusion</text>
<rect x="200" y="860" width="300" height="86" rx="14" fill="#10192e" stroke="#7dd3fc" stroke-width="2"/>
<text x="350" y="896" fill="#e5f3ff" font-family="ui-monospace, SFMono-Regular, Menlo, monospace" font-size="24" text-anchor="middle">Trilateration</text>
<rect x="700" y="860" width="300" height="86" rx="14" fill="#10192e" stroke="#7dd3fc" stroke-width="2"/>
<text x="850" y="896" fill="#e5f3ff" font-family="ui-monospace, SFMono-Regular, Menlo, monospace" font-size="24" text-anchor="middle">Tomography</text>
<rect x="350" y="1030" width="500" height="96" rx="14" fill="#10192e" stroke="#7dd3fc" stroke-width="2"/>
<text x="600" y="1066" fill="#e5f3ff" font-family="ui-monospace, SFMono-Regular, Menlo, monospace" font-size="24" text-anchor="middle">World State</text>
<text x="600" y="1094" fill="#9fb7d5" font-family="ui-monospace, SFMono-Regular, Menlo, monospace" font-size="18" text-anchor="middle">Static map + dynamic overlay</text>
<rect x="420" y="1210" width="360" height="86" rx="14" fill="#132244" stroke="#7dd3fc" stroke-width="2"/>
<text x="600" y="1246" fill="#e5f3ff" font-family="ui-monospace, SFMono-Regular, Menlo, monospace" font-size="24" text-anchor="middle">Dashboard</text>
</g>
<line x1="600" y1="196" x2="600" y2="230" stroke="#7dd3fc" stroke-width="3" marker-end="url(#arrow)"/>
<line x1="600" y1="316" x2="600" y2="350" stroke="#7dd3fc" stroke-width="3" marker-end="url(#arrow)"/>
<line x1="600" y1="436" x2="600" y2="470" stroke="#7dd3fc" stroke-width="3" marker-end="url(#arrow)"/>
<line x1="600" y1="556" x2="600" y2="590" stroke="#7dd3fc" stroke-width="3" marker-end="url(#arrow)"/>
<line x1="600" y1="676" x2="600" y2="710" stroke="#7dd3fc" stroke-width="3" marker-end="url(#arrow)"/>
<line x1="600" y1="796" x2="600" y2="820" stroke="#7dd3fc" stroke-width="3"/>
<line x1="600" y1="820" x2="350" y2="820" stroke="#7dd3fc" stroke-width="3"/>
<line x1="600" y1="820" x2="850" y2="820" stroke="#7dd3fc" stroke-width="3"/>
<line x1="350" y1="820" x2="350" y2="860" stroke="#7dd3fc" stroke-width="3" marker-end="url(#arrow)"/>
<line x1="850" y1="820" x2="850" y2="860" stroke="#7dd3fc" stroke-width="3" marker-end="url(#arrow)"/>
<line x1="350" y1="946" x2="600" y2="1030" stroke="#7dd3fc" stroke-width="3" marker-end="url(#arrow)"/>
<line x1="850" y1="946" x2="600" y2="1030" stroke="#7dd3fc" stroke-width="3" marker-end="url(#arrow)"/>
<line x1="600" y1="1126" x2="600" y2="1210" stroke="#7dd3fc" stroke-width="3" marker-end="url(#arrow)"/>
</svg>