<?xml version="1.0" encoding="UTF-8"?>
<svg xmlns="http://www.w3.org/2000/svg" width="1500" height="700" viewBox="0 0 1500 700">
<defs>
<marker id="arrow" markerWidth="12" markerHeight="12" refX="9" refY="6" orient="auto"><path d="M0,0 L0,12 L10,6 z" fill="#7dd3fc"/></marker>
<filter id="softShadow" x="-20%" y="-20%" width="140%" height="140%"><feDropShadow dx="0" dy="4" stdDeviation="6" flood-color="#020617" flood-opacity="0.55"/></filter>
<linearGradient id="bgGrad" x1="0" y1="0" x2="0" y2="1"><stop offset="0%" stop-color="#0d1428"/><stop offset="100%" stop-color="#0b1020"/></linearGradient>
</defs>
<rect x="0" y="0" width="1500" height="700" fill="url(#bgGrad)"/>
<text x="750" y="42" fill="#e5f3ff" font-family="ui-monospace, SFMono-Regular, Menlo, monospace" font-size="28" text-anchor="middle">Node Connectivity Scaling</text>
<rect x="45" y="90" width="330" height="560" rx="12" fill="#10192e" stroke="#7dd3fc" stroke-width="2" filter="url(#softShadow)"/>
<text x="210" y="120" fill="#e5f3ff" font-family="ui-monospace, SFMono-Regular, Menlo, monospace" font-size="16" text-anchor="middle">1 node</text>
<line x1="210" y1="270" x2="210" y2="380" stroke="#3b82f6" stroke-width="2"/>
<line x1="210" y1="380" x2="210" y2="490" stroke="#3b82f6" stroke-width="2"/>
<circle cx="210" cy="270" r="15" fill="#132244" stroke="#7dd3fc" stroke-width="2"/>
<text x="210" y="276" fill="#e5f3ff" font-family="ui-monospace, SFMono-Regular, Menlo, monospace" font-size="14" text-anchor="middle">n1</text>
<circle cx="210" cy="380" r="15" fill="#132244" stroke="#7dd3fc" stroke-width="2"/>
<text x="210" y="386" fill="#e5f3ff" font-family="ui-monospace, SFMono-Regular, Menlo, monospace" font-size="14" text-anchor="middle">r</text>
<circle cx="210" cy="490" r="15" fill="#132244" stroke="#7dd3fc" stroke-width="2"/>
<text x="210" y="496" fill="#e5f3ff" font-family="ui-monospace, SFMono-Regular, Menlo, monospace" font-size="14" text-anchor="middle">b</text>
<rect x="405" y="90" width="330" height="560" rx="12" fill="#10192e" stroke="#7dd3fc" stroke-width="2" filter="url(#softShadow)"/>
<text x="570" y="120" fill="#e5f3ff" font-family="ui-monospace, SFMono-Regular, Menlo, monospace" font-size="16" text-anchor="middle">2-3 nodes</text>
<line x1="500" y1="300" x2="640" y2="300" stroke="#3b82f6" stroke-width="2"/>
<line x1="640" y1="300" x2="570" y2="435" stroke="#3b82f6" stroke-width="2"/>
<line x1="500" y1="300" x2="570" y2="435" stroke="#3b82f6" stroke-width="2"/>
<circle cx="500" cy="300" r="15" fill="#132244" stroke="#7dd3fc" stroke-width="2"/>
<text x="500" y="306" fill="#e5f3ff" font-family="ui-monospace, SFMono-Regular, Menlo, monospace" font-size="14" text-anchor="middle">n1</text>
<circle cx="640" cy="300" r="15" fill="#132244" stroke="#7dd3fc" stroke-width="2"/>
<text x="640" y="306" fill="#e5f3ff" font-family="ui-monospace, SFMono-Regular, Menlo, monospace" font-size="14" text-anchor="middle">n2</text>
<circle cx="570" cy="435" r="15" fill="#132244" stroke="#7dd3fc" stroke-width="2"/>
<text x="570" y="441" fill="#e5f3ff" font-family="ui-monospace, SFMono-Regular, Menlo, monospace" font-size="14" text-anchor="middle">n3</text>
<rect x="765" y="90" width="330" height="560" rx="12" fill="#10192e" stroke="#7dd3fc" stroke-width="2" filter="url(#softShadow)"/>
<text x="930" y="120" fill="#e5f3ff" font-family="ui-monospace, SFMono-Regular, Menlo, monospace" font-size="16" text-anchor="middle">4-5 nodes</text>
<line x1="860" y1="270" x2="1000" y2="270" stroke="#3b82f6" stroke-width="2"/>
<line x1="860" y1="270" x2="860" y2="450" stroke="#3b82f6" stroke-width="2"/>
<line x1="860" y1="270" x2="1000" y2="450" stroke="#3b82f6" stroke-width="2"/>
<line x1="1000" y1="270" x2="860" y2="450" stroke="#3b82f6" stroke-width="2"/>
<line x1="1000" y1="270" x2="1000" y2="450" stroke="#3b82f6" stroke-width="2"/>
<line x1="860" y1="450" x2="1000" y2="450" stroke="#3b82f6" stroke-width="2"/>
<circle cx="860" cy="270" r="15" fill="#132244" stroke="#7dd3fc" stroke-width="2"/>
<text x="860" y="276" fill="#e5f3ff" font-family="ui-monospace, SFMono-Regular, Menlo, monospace" font-size="14" text-anchor="middle">n1</text>
<circle cx="1000" cy="270" r="15" fill="#132244" stroke="#7dd3fc" stroke-width="2"/>
<text x="1000" y="276" fill="#e5f3ff" font-family="ui-monospace, SFMono-Regular, Menlo, monospace" font-size="14" text-anchor="middle">n2</text>
<circle cx="860" cy="450" r="15" fill="#132244" stroke="#7dd3fc" stroke-width="2"/>
<text x="860" y="456" fill="#e5f3ff" font-family="ui-monospace, SFMono-Regular, Menlo, monospace" font-size="14" text-anchor="middle">n3</text>
<circle cx="1000" cy="450" r="15" fill="#132244" stroke="#7dd3fc" stroke-width="2"/>
<text x="1000" y="456" fill="#e5f3ff" font-family="ui-monospace, SFMono-Regular, Menlo, monospace" font-size="14" text-anchor="middle">n4</text>
<rect x="1125" y="90" width="330" height="560" rx="12" fill="#10192e" stroke="#7dd3fc" stroke-width="2" filter="url(#softShadow)"/>
<text x="1290" y="120" fill="#e5f3ff" font-family="ui-monospace, SFMono-Regular, Menlo, monospace" font-size="16" text-anchor="middle">8+ pattern</text>
<line x1="1200" y1="260" x2="1290" y2="260" stroke="#3b82f6" stroke-width="2"/>
<line x1="1290" y1="260" x2="1380" y2="260" stroke="#3b82f6" stroke-width="2"/>
<line x1="1200" y1="370" x2="1290" y2="370" stroke="#3b82f6" stroke-width="2"/>
<line x1="1290" y1="370" x2="1380" y2="370" stroke="#3b82f6" stroke-width="2"/>
<line x1="1200" y1="480" x2="1290" y2="480" stroke="#3b82f6" stroke-width="2"/>
<line x1="1290" y1="480" x2="1380" y2="480" stroke="#3b82f6" stroke-width="2"/>
<line x1="1200" y1="260" x2="1200" y2="370" stroke="#3b82f6" stroke-width="2"/>
<line x1="1200" y1="370" x2="1200" y2="480" stroke="#3b82f6" stroke-width="2"/>
<line x1="1290" y1="260" x2="1290" y2="370" stroke="#3b82f6" stroke-width="2"/>
<line x1="1290" y1="370" x2="1290" y2="480" stroke="#3b82f6" stroke-width="2"/>
<line x1="1380" y1="260" x2="1380" y2="370" stroke="#3b82f6" stroke-width="2"/>
<line x1="1380" y1="370" x2="1380" y2="480" stroke="#3b82f6" stroke-width="2"/>
<line x1="1200" y1="260" x2="1290" y2="370" stroke="#3b82f6" stroke-width="2"/>
<line x1="1290" y1="260" x2="1200" y2="370" stroke="#3b82f6" stroke-width="2"/>
<line x1="1290" y1="260" x2="1380" y2="370" stroke="#3b82f6" stroke-width="2"/>
<line x1="1380" y1="260" x2="1290" y2="370" stroke="#3b82f6" stroke-width="2"/>
<line x1="1200" y1="370" x2="1290" y2="480" stroke="#3b82f6" stroke-width="2"/>
<line x1="1290" y1="370" x2="1200" y2="480" stroke="#3b82f6" stroke-width="2"/>
<line x1="1290" y1="370" x2="1380" y2="480" stroke="#3b82f6" stroke-width="2"/>
<line x1="1380" y1="370" x2="1290" y2="480" stroke="#3b82f6" stroke-width="2"/>
<circle cx="1200" cy="260" r="15" fill="#132244" stroke="#7dd3fc" stroke-width="2"/>
<text x="1200" y="266" fill="#e5f3ff" font-family="ui-monospace, SFMono-Regular, Menlo, monospace" font-size="14" text-anchor="middle">1</text>
<circle cx="1290" cy="260" r="15" fill="#132244" stroke="#7dd3fc" stroke-width="2"/>
<text x="1290" y="266" fill="#e5f3ff" font-family="ui-monospace, SFMono-Regular, Menlo, monospace" font-size="14" text-anchor="middle">2</text>
<circle cx="1380" cy="260" r="15" fill="#132244" stroke="#7dd3fc" stroke-width="2"/>
<text x="1380" y="266" fill="#e5f3ff" font-family="ui-monospace, SFMono-Regular, Menlo, monospace" font-size="14" text-anchor="middle">3</text>
<circle cx="1200" cy="370" r="15" fill="#132244" stroke="#7dd3fc" stroke-width="2"/>
<text x="1200" y="376" fill="#e5f3ff" font-family="ui-monospace, SFMono-Regular, Menlo, monospace" font-size="14" text-anchor="middle">4</text>
<circle cx="1290" cy="370" r="15" fill="#132244" stroke="#7dd3fc" stroke-width="2"/>
<text x="1290" y="376" fill="#e5f3ff" font-family="ui-monospace, SFMono-Regular, Menlo, monospace" font-size="14" text-anchor="middle">5</text>
<circle cx="1380" cy="370" r="15" fill="#132244" stroke="#7dd3fc" stroke-width="2"/>
<text x="1380" y="376" fill="#e5f3ff" font-family="ui-monospace, SFMono-Regular, Menlo, monospace" font-size="14" text-anchor="middle">6</text>
<circle cx="1200" cy="480" r="15" fill="#132244" stroke="#7dd3fc" stroke-width="2"/>
<text x="1200" y="486" fill="#e5f3ff" font-family="ui-monospace, SFMono-Regular, Menlo, monospace" font-size="14" text-anchor="middle">7</text>
<circle cx="1290" cy="480" r="15" fill="#132244" stroke="#7dd3fc" stroke-width="2"/>
<text x="1290" y="486" fill="#e5f3ff" font-family="ui-monospace, SFMono-Regular, Menlo, monospace" font-size="14" text-anchor="middle">8</text>
<circle cx="1380" cy="480" r="15" fill="#132244" stroke="#7dd3fc" stroke-width="2"/>
<text x="1380" y="486" fill="#e5f3ff" font-family="ui-monospace, SFMono-Regular, Menlo, monospace" font-size="14" text-anchor="middle">9</text>
<text x="750" y="678" fill="#9fb7d5" font-family="ui-monospace, SFMono-Regular, Menlo, monospace" font-size="18" text-anchor="middle">More fixed nodes -> more links -> better spatial resolution</text>
</svg>